<svg width="24" height="24" viewBox="0 0 24 24" fill="none" xmlns="http://www.w3.org/2000/svg">
<path d="M2.99169 16.3417C3.13873 16.7126 3.17147 17.119 3.08569 17.5087L2.02069 20.7987C1.98638 20.9655 1.99525 21.1384 2.04647 21.3008C2.09769 21.4633 2.18955 21.61 2.31336 21.727C2.43716 21.844 2.5888 21.9274 2.75389 21.9693C2.91898 22.0113 3.09205 22.0104 3.25669 21.9667L6.66969 20.9687C7.03741 20.8958 7.41822 20.9276 7.76869 21.0607C9.90408 22.0579 12.3231 22.2689 14.5988 21.6564C16.8746 21.0439 18.861 19.6473 20.2074 17.7131C21.5538 15.7788 22.1738 13.4311 21.958 11.0842C21.7422 8.73738 20.7044 6.54216 19.0278 4.88589C17.3511 3.22962 15.1434 2.21873 12.7941 2.03159C10.4448 1.84445 8.10483 2.49308 6.18713 3.86303C4.26944 5.23299 2.89722 7.23624 2.31258 9.51933C1.72795 11.8024 1.96846 14.2186 2.99169 16.3417Z" stroke="black" stroke-width="2" stroke-linecap="round" stroke-linejoin="round"/>
<path d="M8 12H16" stroke="black" stroke-width="2" stroke-linecap="round" stroke-linejoin="round"/>
<path d="M12 8V16" stroke="black" stroke-width="2" stroke-linecap="round" stroke-linejoin="round"/>
</svg>
