<svg width="19" height="24" viewBox="0 0 19 24" fill="none" xmlns="http://www.w3.org/2000/svg">
<g clip-path="url(#clip0_6677_3602)">
<path d="M18.3955 7.95713C18.2601 8.06216 15.8699 9.40897 15.8699 12.4037C15.8699 15.8676 18.9113 17.093 19.0023 17.1233C18.9883 17.198 18.5192 18.8016 17.3988 20.4355C16.3998 21.8733 15.3564 23.3088 13.7692 23.3088C12.1819 23.3088 11.7735 22.3869 9.94116 22.3869C8.15553 22.3869 7.52064 23.3392 6.0688 23.3392C4.61695 23.3392 3.60393 22.0087 2.43919 20.3748C1.09005 18.4561 0 15.4754 0 12.6464C0 8.10884 2.95037 5.70233 5.85405 5.70233C7.39693 5.70233 8.68305 6.71536 9.65172 6.71536C10.5737 6.71536 12.0115 5.64165 13.7668 5.64165C14.4321 5.64165 16.8222 5.70233 18.3955 7.95713ZM12.9335 3.72064C13.6595 2.85934 14.173 1.66425 14.173 0.469165C14.173 0.30344 14.159 0.135381 14.1286 0C12.9475 0.0443489 11.5424 0.786609 10.6951 1.76929C10.0299 2.52555 9.40897 3.72064 9.40897 4.93206C9.40897 5.11413 9.43931 5.29619 9.45332 5.35455C9.52801 5.36855 9.64939 5.38489 9.77076 5.38489C10.8305 5.38489 12.1633 4.67531 12.9335 3.72064Z" fill="black"/>
</g>
<defs>
<clipPath id="clip0_6677_3602">
<rect width="19" height="23.3415" fill="white"/>
</clipPath>
</defs>
</svg>
