<svg width="24" height="24" viewBox="0 0 24 24" fill="none" xmlns="http://www.w3.org/2000/svg">
<path d="M12.4082 13.017C12.8641 11.9604 13.6704 11.0934 14.6912 10.5622C15.7119 10.031 16.8847 9.86815 18.0116 10.1011C19.1385 10.3341 20.1505 10.9487 20.877 11.8411C21.6034 12.7336 21.9998 13.8493 21.9992 15C21.9992 18.866 17.9992 22 12.9992 22C8.92223 22 4.84623 21.18 2.62823 19.538C2.20223 19.222 1.99723 18.706 2.00823 18.176C2.11723 12.723 2.62623 2 9.99923 2C10.7949 2 11.5579 2.31607 12.1206 2.87868C12.6832 3.44129 12.9992 4.20435 12.9992 5C12.9992 5.53043 12.7885 6.03914 12.4134 6.41421C12.0384 6.78929 11.5297 7 10.9992 7C9.89423 7 9.35923 6.556 8.99923 6" stroke="#BCDACC" stroke-width="2" stroke-linecap="round" stroke-linejoin="round"/>
<path d="M15 13.9989C14.3965 13.546 13.6983 13.2355 12.9578 13.0908C12.2172 12.9461 11.4536 12.9709 10.724 13.1633C9.99437 13.3557 9.31778 13.7108 8.7449 14.2018C8.17202 14.6929 7.71771 15.3073 7.41602 15.9989" stroke="#BCDACC" stroke-width="2" stroke-linecap="round" stroke-linejoin="round"/>
<path d="M9.964 6.82422C8.019 7.97622 9.5 12.9992 8 14.9992" stroke="#BCDACC" stroke-width="2" stroke-linecap="round" stroke-linejoin="round"/>
</svg>
