<svg width="24" height="24" viewBox="0 0 24 24" fill="none" xmlns="http://www.w3.org/2000/svg">
<path d="M7 20H17" stroke="#BCDACC" stroke-width="2" stroke-linecap="round" stroke-linejoin="round"/>
<path d="M10 20C15.5 17.5 10.8 13.6 13 10" stroke="#BCDACC" stroke-width="2" stroke-linecap="round" stroke-linejoin="round"/>
<path d="M9.5 9.40058C10.6 10.2006 11.3 11.6006 11.8 13.1006C9.8 13.5006 8.3 13.5006 7 12.8006C5.8 12.2006 4.7 10.9006 4 8.60058C6.8 8.10058 8.4 8.60058 9.5 9.40058Z" stroke="#BCDACC" stroke-width="2" stroke-linecap="round" stroke-linejoin="round"/>
<path d="M14.0998 6C13.3374 7.19156 12.9539 8.58615 12.9998 10C14.8998 9.9 16.2998 9.4 17.2998 8.6C18.2998 7.6 18.8998 6.3 18.9998 4C16.2998 4.1 14.9998 5 14.0998 6Z" stroke="#BCDACC" stroke-width="2" stroke-linecap="round" stroke-linejoin="round"/>
</svg>
