<svg width="28" height="28" viewBox="0 0 28 28" fill="none" xmlns="http://www.w3.org/2000/svg">
<path d="M13.9997 7.00065V2.33398H9.33301" stroke="#FAFAFA" stroke-width="2" stroke-linecap="round" stroke-linejoin="round"/>
<path d="M17.5 12.834V15.1673" stroke="#FAFAFA" stroke-width="2" stroke-linecap="round" stroke-linejoin="round"/>
<path d="M2.33301 14H4.66634" stroke="#FAFAFA" stroke-width="2" stroke-linecap="round" stroke-linejoin="round"/>
<path d="M23.333 14H25.6663" stroke="#FAFAFA" stroke-width="2" stroke-linecap="round" stroke-linejoin="round"/>
<path d="M23.3337 18.6667C23.3337 19.2855 23.0878 19.879 22.6502 20.3166C22.2127 20.7542 21.6192 21 21.0003 21H10.2997C9.68087 21.0001 9.08748 21.2461 8.64999 21.6837L6.08099 24.2527C5.96515 24.3685 5.81756 24.4474 5.6569 24.4793C5.49623 24.5113 5.3297 24.4949 5.17835 24.4322C5.02701 24.3695 4.89765 24.2633 4.80663 24.1271C4.71561 23.9909 4.66701 23.8308 4.66699 23.667V9.33333C4.66699 8.71449 4.91282 8.121 5.35041 7.68342C5.78799 7.24583 6.38149 7 7.00033 7H21.0003C21.6192 7 22.2127 7.24583 22.6502 7.68342C23.0878 8.121 23.3337 8.71449 23.3337 9.33333V18.6667Z" stroke="#FAFAFA" stroke-width="2" stroke-linecap="round" stroke-linejoin="round"/>
<path d="M10.5 12.834V15.1673" stroke="#FAFAFA" stroke-width="2" stroke-linecap="round" stroke-linejoin="round"/>
</svg>
