<svg width="25" height="24" viewBox="0 0 25 24" fill="none" xmlns="http://www.w3.org/2000/svg">
<path d="M6.5 20C5.96957 20 5.46086 19.7893 5.08579 19.4142C4.71071 19.0391 4.5 18.5304 4.5 18V8C4.5 7.46957 4.71071 6.96086 5.08579 6.58579C5.46086 6.21071 5.96957 6 6.5 6H18.5C19.0304 6 19.5391 6.21071 19.9142 6.58579C20.2893 6.96086 20.5 7.46957 20.5 8V18C20.5 18.5304 20.2893 19.0391 19.9142 19.4142C19.5391 19.7893 19.0304 20 18.5 20" stroke="#92766A" stroke-width="2" stroke-linecap="round" stroke-linejoin="round"/>
<path d="M8.5 18V4C8.5 3.46957 8.71071 2.96086 9.08579 2.58579C9.46086 2.21071 9.96957 2 10.5 2H14.5C15.0304 2 15.5391 2.21071 15.9142 2.58579C16.2893 2.96086 16.5 3.46957 16.5 4V18" stroke="#92766A" stroke-width="2" stroke-linecap="round" stroke-linejoin="round"/>
<path d="M10.5 20H14.5" stroke="#92766A" stroke-width="2" stroke-linecap="round" stroke-linejoin="round"/>
<path d="M16.5 22C17.6046 22 18.5 21.1046 18.5 20C18.5 18.8954 17.6046 18 16.5 18C15.3954 18 14.5 18.8954 14.5 20C14.5 21.1046 15.3954 22 16.5 22Z" stroke="#92766A" stroke-width="2" stroke-linecap="round" stroke-linejoin="round"/>
<path d="M8.5 22C9.60457 22 10.5 21.1046 10.5 20C10.5 18.8954 9.60457 18 8.5 18C7.39543 18 6.5 18.8954 6.5 20C6.5 21.1046 7.39543 22 8.5 22Z" stroke="#92766A" stroke-width="2" stroke-linecap="round" stroke-linejoin="round"/>
</svg>
