<svg width="16" height="16" viewBox="0 0 16 16" fill="none" xmlns="http://www.w3.org/2000/svg">
<path d="M13.3332 6.66634C13.3332 9.99501 9.6405 13.4617 8.4005 14.5323C8.28499 14.6192 8.14437 14.6662 7.99984 14.6662C7.8553 14.6662 7.71469 14.6192 7.59917 14.5323C6.35917 13.4617 2.6665 9.99501 2.6665 6.66634C2.6665 5.25185 3.22841 3.8953 4.2286 2.89511C5.22879 1.89491 6.58535 1.33301 7.99984 1.33301C9.41432 1.33301 10.7709 1.89491 11.7711 2.89511C12.7713 3.8953 13.3332 5.25185 13.3332 6.66634Z" stroke="#271F1D" stroke-width="2" stroke-linecap="round" stroke-linejoin="round"/>
<path d="M8 8.6665C9.10457 8.6665 10 7.77107 10 6.6665C10 5.56193 9.10457 4.6665 8 4.6665C6.89543 4.6665 6 5.56193 6 6.6665C6 7.77107 6.89543 8.6665 8 8.6665Z" stroke="#271F1D" stroke-width="2" stroke-linecap="round" stroke-linejoin="round"/>
</svg>
