<svg width="16" height="16" viewBox="0 0 16 16" fill="none" xmlns="http://www.w3.org/2000/svg">
<g clip-path="url(#clip0_650_4734)">
<path d="M9.2215 11.0455C9.35918 11.1087 9.5143 11.1232 9.66129 11.0865C9.80828 11.0497 9.93839 10.964 10.0302 10.8435L10.2668 10.5335C10.391 10.3679 10.5521 10.2335 10.7372 10.1409C10.9224 10.0484 11.1265 10.0002 11.3335 10.0002H13.3335C13.6871 10.0002 14.0263 10.1406 14.2763 10.3907C14.5264 10.6407 14.6668 10.9799 14.6668 11.3335V13.3335C14.6668 13.6871 14.5264 14.0263 14.2763 14.2763C14.0263 14.5264 13.6871 14.6668 13.3335 14.6668C10.1509 14.6668 7.09865 13.4025 4.84821 11.1521C2.59778 8.90167 1.3335 5.84943 1.3335 2.66683C1.3335 2.31321 1.47397 1.97407 1.72402 1.72402C1.97407 1.47397 2.31321 1.3335 2.66683 1.3335H4.66683C5.02045 1.3335 5.35959 1.47397 5.60964 1.72402C5.85969 1.97407 6.00016 2.31321 6.00016 2.66683V4.66683C6.00016 4.87382 5.95197 5.07797 5.8594 5.26311C5.76683 5.44825 5.63242 5.6093 5.46683 5.7335L5.15483 5.9675C5.03244 6.06095 4.94618 6.19389 4.91069 6.34373C4.8752 6.49357 4.89268 6.65108 4.96016 6.7895C5.87128 8.64007 7.36978 10.1367 9.2215 11.0455Z" stroke="#271F1D" stroke-width="2" stroke-linecap="round" stroke-linejoin="round"/>
</g>
<defs>
<clipPath id="clip0_650_4734">
<rect width="16" height="16" fill="white"/>
</clipPath>
</defs>
</svg>
