<svg width="16" height="16" viewBox="0 0 16 16" fill="none" xmlns="http://www.w3.org/2000/svg">
<g clip-path="url(#clip0_650_4740)">
<path d="M14.36 10H11.3333C10.9797 10 10.6406 10.1405 10.3905 10.3905C10.1405 10.6406 10 10.9797 10 11.3333V14.36" stroke="#271F1D" stroke-width="2" stroke-linecap="round" stroke-linejoin="round"/>
<path d="M4.6665 2.22656V3.33323C4.6665 3.86366 4.87722 4.37237 5.25229 4.74744C5.62736 5.12252 6.13607 5.33323 6.6665 5.33323C7.02013 5.33323 7.35926 5.47371 7.60931 5.72375C7.85936 5.9738 7.99984 6.31294 7.99984 6.66656C7.99984 7.3999 8.59984 7.9999 9.33317 7.9999C9.68679 7.9999 10.0259 7.85942 10.276 7.60937C10.526 7.35932 10.6665 7.02018 10.6665 6.66656C10.6665 5.93323 11.2665 5.33323 11.9998 5.33323H14.1132" stroke="#271F1D" stroke-width="2" stroke-linecap="round" stroke-linejoin="round"/>
<path d="M7.33337 14.6335V12.0002C7.33337 11.6465 7.19289 11.3074 6.94284 11.0574C6.69279 10.8073 6.35365 10.6668 6.00003 10.6668C5.64641 10.6668 5.30727 10.5264 5.05722 10.2763C4.80717 10.0263 4.6667 9.68712 4.6667 9.3335V8.66683C4.6667 8.31321 4.52622 7.97407 4.27618 7.72402C4.02613 7.47397 3.68699 7.3335 3.33337 7.3335H1.3667" stroke="#271F1D" stroke-width="2" stroke-linecap="round" stroke-linejoin="round"/>
<path d="M8.00016 14.6668C11.6821 14.6668 14.6668 11.6821 14.6668 8.00016C14.6668 4.31826 11.6821 1.3335 8.00016 1.3335C4.31826 1.3335 1.3335 4.31826 1.3335 8.00016C1.3335 11.6821 4.31826 14.6668 8.00016 14.6668Z" stroke="#271F1D" stroke-width="2" stroke-linecap="round" stroke-linejoin="round"/>
</g>
<defs>
<clipPath id="clip0_650_4740">
<rect width="16" height="16" fill="white"/>
</clipPath>
</defs>
</svg>
