<svg width="25" height="24" viewBox="0 0 25 24" fill="none" xmlns="http://www.w3.org/2000/svg">
<path d="M19.5 17H21.5C22.1 17 22.5 16.6 22.5 16V13C22.5 12.1 21.8 11.3 21 11.1C19.2 10.6 16.5 10 16.5 10C16.5 10 15.2 8.6 14.3 7.7C13.8 7.3 13.2 7 12.5 7H5.5C4.9 7 4.4 7.4 4.1 7.9L2.7 10.8C2.56758 11.1862 2.5 11.5917 2.5 12V16C2.5 16.6 2.9 17 3.5 17H5.5" stroke="#92766A" stroke-width="2" stroke-linecap="round" stroke-linejoin="round"/>
<path d="M7.5 19C8.60457 19 9.5 18.1046 9.5 17C9.5 15.8954 8.60457 15 7.5 15C6.39543 15 5.5 15.8954 5.5 17C5.5 18.1046 6.39543 19 7.5 19Z" stroke="#92766A" stroke-width="2" stroke-linecap="round" stroke-linejoin="round"/>
<path d="M9.5 17H15.5" stroke="#92766A" stroke-width="2" stroke-linecap="round" stroke-linejoin="round"/>
<path d="M17.5 19C18.6046 19 19.5 18.1046 19.5 17C19.5 15.8954 18.6046 15 17.5 15C16.3954 15 15.5 15.8954 15.5 17C15.5 18.1046 16.3954 19 17.5 19Z" stroke="#92766A" stroke-width="2" stroke-linecap="round" stroke-linejoin="round"/>
</svg>
