<svg width="20" height="20" fill="none" xmlns="http://www.w3.org/2000/svg">
  <path
    d="M9.526 18.32a2.247 2.247 0 0 1-.272-.276c-.329-.39-.663-.992-.96-1.782a14.202 14.202 0 0 1-.611-2.182A21.84 21.84 0 0 1 10 13.958c.804 0 1.58.043 2.317.122a14.206 14.206 0 0 1-.61 2.182c-.298.79-.632 1.391-.961 1.782a2.245 2.245 0 0 1-.272.276 8.456 8.456 0 0 1-.948 0zM7.477 12.845A23.107 23.107 0 0 1 10 12.708c.871 0 1.718.049 2.523.137.094-.702.155-1.447.177-2.22H7.3c.022.774.083 1.518.177 2.22zM6.05 10.625c.022.83.087 1.632.189 2.393a16.135 16.135 0 0 0-2.941.772c-.205.077-.403.158-.592.243a8.282 8.282 0 0 1-1.016-3.408h4.36zM7.3 9.375h5.4a21.395 21.395 0 0 0-.177-2.22c-.805.089-1.652.137-2.523.137-.872 0-1.718-.048-2.523-.137a21.368 21.368 0 0 0-.177 2.22zM6.239 6.982a22.637 22.637 0 0 0-.19 2.393H1.69a8.282 8.282 0 0 1 1.017-3.408c.19.085.387.166.592.243.847.32 1.843.584 2.94.772zM7.683 5.92a21.861 21.861 0 0 0 4.635 0 14.205 14.205 0 0 0-.611-2.181c-.298-.791-.632-1.392-.961-1.783a2.25 2.25 0 0 0-.272-.276 8.456 8.456 0 0 0-.948 0c-.083.07-.174.16-.272.276-.329.391-.663.992-.96 1.783a14.203 14.203 0 0 0-.611 2.18zM7.731 1.98a9.367 9.367 0 0 0-.608 1.318c-.27.719-.502 1.545-.68 2.45a14.892 14.892 0 0 1-2.704-.708 9.97 9.97 0 0 1-.336-.133A8.343 8.343 0 0 1 7.731 1.98zM6.442 14.252c.179.905.41 1.731.681 2.45.182.483.386.927.608 1.319a8.343 8.343 0 0 1-4.328-2.928c.108-.045.22-.09.336-.133a14.892 14.892 0 0 1 2.703-.708zM13.761 6.982a16.14 16.14 0 0 0 2.941-.772c.205-.077.403-.158.592-.243a8.28 8.28 0 0 1 1.016 3.408h-4.36a22.61 22.61 0 0 0-.189-2.393zM16.596 4.907c-.107.045-.219.09-.335.133-.765.289-1.68.533-2.703.708a15.53 15.53 0 0 0-.681-2.45 9.365 9.365 0 0 0-.608-1.319 8.343 8.343 0 0 1 4.327 2.928zM16.261 14.96a14.892 14.892 0 0 0-2.703-.708 15.53 15.53 0 0 1-.681 2.45 9.362 9.362 0 0 1-.608 1.319 8.343 8.343 0 0 0 4.327-2.928 9.922 9.922 0 0 0-.335-.133zM16.702 13.79c.205.077.403.158.592.243a8.28 8.28 0 0 0 1.016-3.408h-4.36a22.61 22.61 0 0 1-.189 2.393c1.098.188 2.094.453 2.941.772z"
    fill="#FFFFFF"
  />
  <path
    fill-rule="evenodd"
    clip-rule="evenodd"
    d="M10 2.917a7.083 7.083 0 1 0 0 14.166 7.083 7.083 0 0 0 0-14.166zM1.667 10a8.333 8.333 0 1 1 16.666 0 8.333 8.333 0 0 1-16.666 0z"
    fill="#FFFFFF"
  />
</svg>
