<svg width="20" height="20" fill="none" xmlns="http://www.w3.org/2000/svg"><path d="M17.708 10H2.292m15.416 0c0-1.607-.492-3.1-1.333-4.335M17.708 10c0 1.607-.492 3.1-1.333 4.335M2.292 10c0-1.607.492-3.1 1.333-4.335M2.292 10c0 1.607.492 3.1 1.333 4.335m0-8.67c1.65.603 3.898 1.002 6.375 1.002s4.725-.4 6.375-1.002m-12.75 0a7.718 7.718 0 0 1 4.526-3.15m8.224 3.15a7.718 7.718 0 0 0-4.526-3.15m0 0A7.727 7.727 0 0 0 10 2.292c-.637 0-1.257.077-1.849.223m3.698 0c.863 1.66 1.484 4.394 1.484 7.485s-.621 5.825-1.484 7.485M8.15 2.515C7.288 4.175 6.667 6.909 6.667 10s.621 5.825 1.484 7.485m0 0a7.726 7.726 0 0 0 3.698 0m-3.698 0a7.718 7.718 0 0 1-4.526-3.15m8.224 3.15a7.718 7.718 0 0 0 4.526-3.15m0 0c-1.65-.603-3.898-1.002-6.375-1.002s-4.725.4-6.375 1.002" stroke="#767676" stroke-width="1.25"/></svg>