<svg width="25" height="24" viewBox="0 0 25 24" fill="none" xmlns="http://www.w3.org/2000/svg">
<path d="M15.75 2H9.75C9.19772 2 8.75 2.44772 8.75 3V5C8.75 5.55228 9.19772 6 9.75 6H15.75C16.3023 6 16.75 5.55228 16.75 5V3C16.75 2.44772 16.3023 2 15.75 2Z" stroke="#FF8E66" stroke-width="2" stroke-linecap="round" stroke-linejoin="round"/>
<path d="M16.75 4H18.75C19.2804 4 19.7891 4.21071 20.1642 4.58579C20.5393 4.96086 20.75 5.46957 20.75 6V20C20.75 20.5304 20.5393 21.0391 20.1642 21.4142C19.7891 21.7893 19.2804 22 18.75 22H6.75C6.21957 22 5.71086 21.7893 5.33579 21.4142C4.96071 21.0391 4.75 20.5304 4.75 20V6C4.75 5.46957 4.96071 4.96086 5.33579 4.58579C5.71086 4.21071 6.21957 4 6.75 4H8.75" stroke="#FF8E66" stroke-width="2" stroke-linecap="round" stroke-linejoin="round"/>
<path d="M12.75 11H16.75" stroke="#FF8E66" stroke-width="2" stroke-linecap="round" stroke-linejoin="round"/>
<path d="M12.75 16H16.75" stroke="#FF8E66" stroke-width="2" stroke-linecap="round" stroke-linejoin="round"/>
<path d="M8.75 11H8.76" stroke="#FF8E66" stroke-width="2" stroke-linecap="round" stroke-linejoin="round"/>
<path d="M8.75 16H8.76" stroke="#FF8E66" stroke-width="2" stroke-linecap="round" stroke-linejoin="round"/>
</svg>
