<svg width="25" height="25" viewBox="0 0 25 25" fill="none" xmlns="http://www.w3.org/2000/svg">
<mask id="mask0_6677_3592" style="mask-type:luminance" maskUnits="userSpaceOnUse" x="0" y="0" width="25" height="25">
<path d="M25 0H0V25H25V0Z" fill="white"/>
</mask>
<g mask="url(#mask0_6677_3592)">
<path d="M24.5 12.7834C24.5 11.8971 24.4205 11.0448 24.2727 10.2266H12.5V15.0618H19.2272C18.9375 16.6243 18.0569 17.9482 16.733 18.8346V21.9709H20.7728C23.1364 19.7948 24.5 16.5902 24.5 12.7834Z" fill="#4285F4"/>
<path d="M12.4986 24.998C15.8736 24.998 18.7031 23.8787 20.7712 21.9697L16.7315 18.8333C15.6122 19.5833 14.1804 20.0264 12.4986 20.0264C9.24288 20.0264 6.48725 17.8275 5.50425 14.873H1.32812V18.1117C3.385 22.1969 7.61225 24.998 12.4986 24.998Z" fill="#34A853"/>
<path d="M5.50562 14.8753C5.25562 14.1253 5.11363 13.3242 5.11363 12.5003C5.11363 11.6765 5.25562 10.8753 5.50562 10.1253V6.88672H1.3295C0.482999 8.57422 0 10.4833 0 12.5003C0 14.5173 0.482999 16.4265 1.3295 18.114L5.50562 14.8753Z" fill="#FBBC04"/>
<path d="M12.4986 4.97162C14.3338 4.97162 15.9815 5.60225 17.277 6.84088L20.8623 3.25562C18.6975 1.23862 15.8679 0 12.4986 0C7.61225 0 3.385 2.80113 1.32812 6.88637L5.50425 10.125C6.48725 7.1705 9.24288 4.97162 12.4986 4.97162Z" fill="#E94235"/>
</g>
</svg>
