<svg width="16" height="16" viewBox="0 0 16 16" fill="none" xmlns="http://www.w3.org/2000/svg">
<path d="M13.3334 6.66634C13.3334 9.99501 9.64075 13.4617 8.40075 14.5323C8.28523 14.6192 8.14461 14.6662 8.00008 14.6662C7.85555 14.6662 7.71493 14.6192 7.59941 14.5323C6.35941 13.4617 2.66675 9.99501 2.66675 6.66634C2.66675 5.25185 3.22865 3.8953 4.22885 2.89511C5.22904 1.89491 6.58559 1.33301 8.00008 1.33301C9.41457 1.33301 10.7711 1.89491 11.7713 2.89511C12.7715 3.8953 13.3334 5.25185 13.3334 6.66634Z" stroke="#5D4A43" stroke-width="2" stroke-linecap="round" stroke-linejoin="round"/>
<path d="M8 8.66699C9.10457 8.66699 10 7.77156 10 6.66699C10 5.56242 9.10457 4.66699 8 4.66699C6.89543 4.66699 6 5.56242 6 6.66699C6 7.77156 6.89543 8.66699 8 8.66699Z" stroke="#5D4A43" stroke-width="2" stroke-linecap="round" stroke-linejoin="round"/>
</svg>
