<svg width="16" height="16" viewBox="0 0 16 16" fill="none" xmlns="http://www.w3.org/2000/svg">
<path d="M13.3337 6.66732C13.3337 9.99598 9.64099 13.4627 8.40099 14.5333C8.28547 14.6202 8.14486 14.6672 8.00033 14.6672C7.85579 14.6672 7.71518 14.6202 7.59966 14.5333C6.35966 13.4627 2.66699 9.99598 2.66699 6.66732C2.66699 5.25283 3.2289 3.89628 4.22909 2.89608C5.22928 1.89589 6.58584 1.33398 8.00033 1.33398C9.41481 1.33398 10.7714 1.89589 11.7716 2.89608C12.7718 3.89628 13.3337 5.25283 13.3337 6.66732Z" stroke="#476155" stroke-linecap="round" stroke-linejoin="round"/>
<path d="M8 8.66602C9.10457 8.66602 10 7.77059 10 6.66602C10 5.56145 9.10457 4.66602 8 4.66602C6.89543 4.66602 6 5.56145 6 6.66602C6 7.77059 6.89543 8.66602 8 8.66602Z" stroke="#476155" stroke-linecap="round" stroke-linejoin="round"/>
</svg>
