<svg width="14" height="14" viewBox="0 0 14 14" fill="none" xmlns="http://www.w3.org/2000/svg">
<g clip-path="url(#clip0_5279_6608)">
<path d="M5.797 9.04116C5.74492 8.83929 5.63969 8.65506 5.49227 8.50763C5.34485 8.36021 5.16062 8.25499 4.95875 8.20291L1.38 7.28008C1.31894 7.26275 1.2652 7.22597 1.22694 7.17534C1.18867 7.1247 1.16797 7.06296 1.16797 6.99949C1.16797 6.93603 1.18867 6.87429 1.22694 6.82365C1.2652 6.77301 1.31894 6.73624 1.38 6.71891L4.95875 5.79549C5.16055 5.74346 5.34473 5.63833 5.49215 5.49102C5.63956 5.34371 5.74483 5.1596 5.797 4.95783L6.71983 1.37908C6.73698 1.31778 6.77372 1.26378 6.82443 1.22531C6.87515 1.18684 6.93705 1.16602 7.0007 1.16602C7.06436 1.16602 7.12626 1.18684 7.17698 1.22531C7.22769 1.26378 7.26443 1.31778 7.28158 1.37908L8.20383 4.95783C8.25591 5.1597 8.36113 5.34393 8.50855 5.49135C8.65597 5.63878 8.8402 5.744 9.04208 5.79608L12.6208 6.71833C12.6824 6.7353 12.7366 6.772 12.7753 6.82279C12.814 6.87358 12.8349 6.93566 12.8349 6.99949C12.8349 7.06333 12.814 7.12541 12.7753 7.1762C12.7366 7.22699 12.6824 7.26369 12.6208 7.28066L9.04208 8.20291C8.8402 8.25499 8.65597 8.36021 8.50855 8.50763C8.36113 8.65506 8.25591 8.83929 8.20383 9.04116L7.281 12.6199C7.26384 12.6812 7.22711 12.7352 7.17639 12.7737C7.12568 12.8122 7.06377 12.833 7.00012 12.833C6.93647 12.833 6.87456 12.8122 6.82385 12.7737C6.77314 12.7352 6.7364 12.6812 6.71925 12.6199L5.797 9.04116Z" stroke="#749A88" stroke-linecap="round" stroke-linejoin="round"/>
</g>
<defs>
<clipPath id="clip0_5279_6608">
<rect width="14" height="14" fill="white"/>
</clipPath>
</defs>
</svg>
