<svg width="26" height="25" viewBox="0 0 26 25" fill="none" xmlns="http://www.w3.org/2000/svg">
<path d="M16.2215 1.99633L17.4554 4.48953C17.9784 5.54648 18.9898 6.27846 20.1603 6.44815L22.9208 6.84742C25.8671 7.27441 27.0431 10.8833 24.9113 12.9551L22.9141 14.896C22.0674 15.7189 21.6813 16.9034 21.8804 18.0657L22.3522 20.8062C22.8551 23.7308 19.7753 25.9623 17.1406 24.5804L14.6716 23.2872C13.6246 22.7393 12.3751 22.7393 11.3281 23.2872L8.85912 24.5804C6.22326 25.9612 3.14345 23.7308 3.64748 20.8062L4.11924 18.0657C4.31952 16.9045 3.93232 15.7189 3.08559 14.896L1.08839 12.9551C-1.04344 10.8833 0.133738 7.27441 3.08003 6.84742L5.84051 6.44815C7.01102 6.27846 8.02241 5.54648 8.54536 4.48953L9.77928 1.99633C11.0967 -0.665444 14.9041 -0.665444 16.2215 1.99633Z" fill="#FFC748"/>
</svg>
