<svg width="26" height="25" viewBox="0 0 26 25" fill="none" xmlns="http://www.w3.org/2000/svg">
<path d="M20.0886 6.94298L20.0887 6.943L22.8491 7.34225C25.3869 7.71005 26.3956 10.8154 24.5628 12.5965L22.5656 14.5374L22.5656 14.5374C21.6008 15.4751 21.1606 16.8252 21.3876 18.1501L21.3877 18.1505L21.8594 20.891C22.2916 23.4041 19.6435 25.3286 17.3728 24.1376L17.3726 24.1375L14.9036 22.8443L14.9034 22.8442C13.7112 22.2203 12.2885 22.2203 11.0963 22.8442L11.0961 22.8443L8.62713 24.1375L8.62711 24.1375C6.35462 25.3279 3.70723 23.4035 4.14022 20.8911L4.14023 20.891L4.61197 18.1507C4.8404 16.8262 4.39862 15.4748 3.43407 14.5374L3.43405 14.5374L1.43685 12.5965C-0.395677 10.8156 0.613538 7.7101 3.15174 7.34225L5.91208 6.943L5.91224 6.94298C7.24476 6.7498 8.3973 5.91627 8.99351 4.71126L10.2274 2.21811C11.3612 -0.0727058 14.6396 -0.0727054 15.7734 2.21812L17.0073 4.71126C17.0073 4.71128 17.0073 4.71129 17.0073 4.71131C17.6035 5.91629 18.7561 6.74981 20.0886 6.94298Z" stroke="#E6E6E6"/>
</svg>
