<svg width="14" height="15" viewBox="0 0 14 15" fill="none" xmlns="http://www.w3.org/2000/svg">
<path d="M5.79651 9.54165C5.74443 9.33977 5.63921 9.15554 5.49178 9.00812C5.34436 8.8607 5.16013 8.75548 4.95826 8.7034L1.37951 7.78057C1.31845 7.76324 1.26471 7.72646 1.22645 7.67583C1.18818 7.62519 1.16748 7.56345 1.16748 7.49998C1.16748 7.43651 1.18818 7.37478 1.22645 7.32414C1.26471 7.2735 1.31845 7.23673 1.37951 7.2194L4.95826 6.29598C5.16006 6.24395 5.34424 6.13882 5.49166 5.99151C5.63907 5.84419 5.74434 5.66008 5.79651 5.45832L6.71934 1.87957C6.7365 1.81827 6.77323 1.76427 6.82394 1.7258C6.87466 1.68733 6.93656 1.6665 7.00022 1.6665C7.06387 1.6665 7.12577 1.68733 7.17649 1.7258C7.2272 1.76427 7.26394 1.81827 7.28109 1.87957L8.20334 5.45832C8.25542 5.66019 8.36064 5.84442 8.50806 5.99184C8.65549 6.13926 8.83972 6.24449 9.04159 6.29657L12.6203 7.21882C12.6819 7.23579 12.7362 7.27249 12.7748 7.32328C12.8135 7.37407 12.8345 7.43614 12.8345 7.49998C12.8345 7.56382 12.8135 7.6259 12.7748 7.67669C12.7362 7.72748 12.6819 7.76417 12.6203 7.78115L9.04159 8.7034C8.83972 8.75548 8.65549 8.8607 8.50806 9.00812C8.36064 9.15554 8.25542 9.33977 8.20334 9.54165L7.28051 13.1204C7.26335 13.1817 7.22662 13.2357 7.1759 13.2742C7.12519 13.3126 7.06329 13.3335 6.99963 13.3335C6.93598 13.3335 6.87407 13.3126 6.82336 13.2742C6.77265 13.2357 6.73591 13.1817 6.71876 13.1204L5.79651 9.54165Z" stroke="#FFAC8F" stroke-linecap="round" stroke-linejoin="round"/>
</svg>
